<svg xmlns="http://www.w3.org/2000/svg" width="26" height="64" viewBox="0 0 26 64">
    <g fill="none" fill-rule="evenodd">
        <path fill="#A35563" d="M0 49l2.73 14.608h16.089L21.62 49z"/>
        <path fill="#5EBB53" d="M24.764 32.006c-.57-1.2-1.55-.92-2.68-.77-1.07.15-2.17.47-3.22.92-.87.34-1.71.77-2.47 1.25-1.16.74-3.14 2.18-3.66 3.7l-.19-.06c.24-.76.51-1.55.81-2.38.73-2.03 1.35-3.97 1.86-5.89l.27.07c.35-.22.7-.43 1.12-.64 1.67-.65 3-1.32 4.08-2.44.56-.57 1.04-1.26 1.47-2.13.92-1.75 1.97-3.79 2.18-5.76.43-3.58-2.6-2.32-4.21-.7-.35.34-.7.74-1.05 1.18-1.12 1.4-2.18 3.18-2.64 4.71.28-1.71.47-3.46.59-5.28.07-1.21.11-2.45.12-3.73 1.28-2.73 2.5-5.1 2.35-7.96-.02-.79-.16-1.61-.43-2.49-.22-.82-.7-2.19-1.36-2.99-.56-.7-1.25-.95-2.01.04-1.2 1.55-2.11 4.08-2.11 5.97 0 .48.07.96.19 1.44.47 1.93 1.69 3.78 1.88 5.66v.01c.02.31.03.63-.01.94v.03c-.02 1.31-.08 2.58-.18 3.82-.07.97-.17 1.91-.29 2.85-.17 1.37-.4 2.71-.67 4.04l-.08-.02c.07-1.69-.63-3.3-1.26-4.85-.1-.23-.21-.48-.32-.74-.02-.06-.05-.12-.08-.18-.32-.77-.7-1.63-1.15-2.45-.68-1.24-1.51-2.37-2.53-2.88-2.53-1.34-3.72.7-3.94 3.09-.15 2.01.49 3.87 1.49 5.58.35.62.76 1.22 1.19 1.8.02.02.03.04.05.06.9 1.18 2.07 2.55 3.46 3.24.7.45 1.52.73 2.24 1.15-.24.86-.5 1.73-.78 2.61-.29.89-.6 1.8-.93 2.73-.15.41-.28.8-.41 1.19l-.05-.02c.07-1.82-.14-2.95-1.19-4.49-.36-.55-.81-1.14-1.32-1.7-.22-.25-.46-.5-.71-.73-.9-.87-1.93-1.6-2.97-1.93-1.89-.64-2.95-.78-3.16 1.4-.28 2.32.56 4.43 1.83 6.33.32.47.76 1.04 1.28 1.62 1.43 1.58 3.48 3.19 5.32 2.69-.25.94-.44 1.86-.55 2.78-.08.59-.13 1.17-.15 1.77h-.07c-.24-.41-1.1-.95-2.13-1.39-.47-.21-.97-.4-1.46-.54-1.25-.39-2.44-.51-2.87-.04-1.2 1.25 1.48 3.63 2.56 4.32.07.05.13.08.18.11.98.42 2.74.77 3.72.35l.17-.02h.01c.08.81.22 1.65.41 2.55h1.46c-.23-1.06-.37-2.05-.44-3l.22-.02c.64.63 2.17.53 3.7.03 1.65-.54 3.31-1.54 3.84-2.56.23-.43.25-.86-.02-1.27-.52-.78-2.52-.48-4.34.2-1.62.61-3.09 1.53-3.25 2.26l-.21.01c-.03-1.45.13-2.83.43-4.24l.06.01c2.6.07 4.92 0 7.45-1.05.46-.19.93-.42 1.41-.68 1.63-.86 3.24-2.1 4-3.68.43-.84.64-1.97.15-2.81"/>
    </g>
</svg>
