<svg xmlns="http://www.w3.org/2000/svg" width="36" height="16">
    <path fill="#574751" fill-rule="evenodd" d="M32 8V4.9954C32 4.4557 31.5523 4 31 4c-.556 0-1 .4457-1 .9954V8h-3.0046C26.4557 8 26 8.4477 26 9c0 .556.4457 1 .9954 1H30v3.0046c0 .5397.4477.9954 1 .9954.556 0 1-.4457 1-.9954V10h3.0046C35.5443 10 36 9.5523 36 9c0-.556-.4457-1-.9954-1H32zM3.954 9.091l2.3113-6.4303h.0382l2.273 6.4303H3.954zM5.3102 1L0 14.7876h1.853l1.528-4.1517h5.7687l1.49 4.151h2.0056L7.316 1H5.31zm17.1533 13.749c-.2802.1673-.6686.251-1.1652.251-.4203 0-.7545-.119-1.003-.3572-.2482-.2382-.3723-.6276-.3723-1.1683-.4457.5407-.9647.93-1.5568 1.1683-.5922.238-1.232.3572-1.9197.3572-.4457 0-.869-.0515-1.2703-.1545-.401-.103-.748-.264-1.041-.4827-.293-.219-.5253-.5053-.6972-.8594-.172-.354-.258-.782-.258-1.284 0-.5665.0956-1.03.2866-1.3904.191-.3605.4425-.6534.7545-.8787.312-.2252.669-.3958 1.07-.5117.401-.1158.812-.2124 1.232-.2896.446-.09.869-.1577 1.271-.2028.402-.045.755-.1094 1.061-.193.306-.0838.548-.206.726-.367.179-.161.268-.396.268-.7048 0-.3605-.067-.65-.2003-.869-.1336-.2188-.3055-.3862-.5157-.502-.21-.116-.446-.1932-.707-.2318-.261-.0386-.519-.058-.7736-.058-.6875 0-1.2605.132-1.719.396-.4585.264-.707.7627-.745 1.4965h-1.624c.0257-.617.153-1.139.3823-1.564.229-.425.535-.769.917-1.033.382-.264.818-.454 1.3083-.569.49-.116 1.0155-.174 1.576-.174.4455 0 .888.032 1.3273.097.4392.065.837.197 1.194.396.3563.2.643.48.8593.84.2166.361.3248.831.3248 1.41v5.137c0 .3868.0228.67.067.85.045.1807.194.2708.449.2708.14 0 .306-.032.497-.0962v1.274zm-2.636-5.1173c-.2038.1545-.4712.2672-.8023.338-.331.0708-.678.1287-1.041.1737-.363.045-.729.0966-1.0984.1545-.3693.058-.7004.151-.9933.28-.293.128-.5316.312-.7163.55-.1846.238-.277.563-.277.975 0 .27.0542.499.1624.685.1083.186.2483.338.4202.453.172.116.3725.199.6017.251.2293.051.4712.077.726.077.5348 0 .9932-.074 1.3752-.222.382-.148.694-.335.936-.56.242-.226.4202-.47.5348-.734.1147-.264.172-.512.172-.744V9.63z"/>
</svg>