<svg xmlns="http://www.w3.org/2000/svg" width="26" height="16">
    <path fill="#574751" fill-rule="evenodd" d="M6.4 16C2.87 16 0 13.3 0 9.95 0 6.75 5.78.42 6.03.15c.18-.2.56-.2.74 0 .25.27 6.03 6.6 6.03 9.8C12.8 13.3 9.93 16 6.4 16zm0-14.13C4.76 3.74 1.48 7.9 1.48 9.94c0 2.58 2.2 4.68 4.92 4.68 2.7 0 4.92-2.1 4.92-4.68 0-2.03-3.28-6.2-4.92-8.07zM22 7V4c0-.54-.45-1-1-1-.56 0-1 .45-1 1v3h-3c-.54 0-1 .45-1 1 0 .56.45 1 1 1h3v3c0 .54.45 1 1 1 .56 0 1-.45 1-1V9h3c.54 0 1-.45 1-1 0-.56-.45-1-1-1h-3z"/>
</svg>