<svg width="26" height="18" viewBox="0 0 26 18" xmlns="http://www.w3.org/2000/svg">
    <g fill="#BCB5B9" fill-rule="evenodd">
        <path d="M11.27 17.992C7.26 17.992 4 14.95 4 11.21 4 7.597 10.567.473 10.846.17c.213-.23.634-.23.846 0 .28.302 6.846 7.426 6.846 11.037 0 3.74-3.26 6.782-7.27 6.782zm0-15.89c-1.86 2.102-5.592 6.794-5.592 9.08 0 2.905 2.508 5.268 5.59 5.268 3.085 0 5.593-2.363 5.593-5.27 0-2.284-3.732-6.976-5.59-9.078z"/>
        <path d="M17.473 3.578l-1.01-1.31c.992-1.182 1.76-1.998 1.85-2.096.218-.23.647-.23.863 0 .285.302 6.978 7.43 6.978 11.042 0 3.742-3.324 6.786-7.41 6.786-.388 0-.77-.028-1.142-.08l1.514-1.473c2.97-.177 5.328-2.47 5.328-5.26 0-2.286-3.804-6.98-5.7-9.084-.365.407-.803.91-1.27 1.475z"/>
    </g>
</svg>