<svg xmlns="http://www.w3.org/2000/svg" width="58" height="22" xmlns:xlink="http://www.w3.org/1999/xlink">
    <defs>
        <path id="a" d="M52.7527375,12.5684968 L52.7527375,12.5684968 C54.5954276,13.2073604 55.369341,12.0846609 54.4794713,10.0566608 L52.5216697,5.59485947 C51.6326284,3.56874711 50.1920359,3.56685937 49.3021662,5.59485947 L47.3443646,10.0566608 C46.4553233,12.0827732 47.4224049,13.1401015 49.0710984,12.5684968 L49.0710984,12.5684968 L49.0710984,15.8930884 C49.0710984,16.9957401 49.9623205,17.8896159 51.0627721,17.8896159 L50.7610638,17.8896159 C51.8610348,17.8896159 52.7527375,16.9869606 52.7527375,15.8930884 L52.7527375,12.5684968 Z"/>
        <filter id="b" width="200%" height="200%" x="-50%" y="-50%" filterUnits="objectBoundingBox">
            <feOffset dx=".5" dy=".5" in="SourceAlpha" result="shadowOffsetOuter1"/>
            <feGaussianBlur stdDeviation=".5" in="shadowOffsetOuter1" result="shadowBlurOuter1"/>
            <feComposite in="shadowBlurOuter1" in2="SourceAlpha" operator="out" result="shadowBlurOuter1"/>
            <feColorMatrix values="0 0 0 0 0.349019608 0 0 0 0 0.349019608 0 0 0 0 0.349019608 0 0 0 0.3 0" in="shadowBlurOuter1"/>
        </filter>
        <mask id="c" width="8" height="13.8" x="0" y="0" fill="#fff">
            <use xlink:href="#a"/>
        </mask>
    </defs>
    <g fill="none" fill-rule="evenodd">
        <rect width="28" height="22" fill="#F2F2F2" rx="2"/>
        <path fill="#574751" d="M12.8571429,12.1428571 L15.1428571,12.1428571 L15.1428571,9.85714286 L12.8571429,9.85714286 L12.8571429,12.1428571 Z M12.8571429,13.2857143 L12.8571429,14.5984556 C12.8571429,15.2574036 12.61905,15.8223915 12.1428571,16.2934363 C11.6666643,16.7644811 11.0939544,17 10.4247104,17 C9.75546641,17 9.18404355,16.7631941 8.71042471,16.2895753 C8.23680587,15.8159564 8,15.2419596 8,14.5675676 C8,13.9086196 8.23680587,13.3397707 8.71042471,12.8610039 C9.18404355,12.382237 9.74774448,12.1428571 10.4015444,12.1428571 L11.7142857,12.1428571 L11.7142857,9.85714286 L10.4015444,9.85714286 C9.74774448,9.85714286 9.18404355,9.61776301 8.71042471,9.13899614 C8.23680587,8.66022927 8,8.08880641 8,7.42471042 C8,6.75546641 8.23680587,6.18404355 8.71042471,5.71042471 C9.18404355,5.23680587 9.75546641,5 10.4247104,5 C11.0939544,5 11.6666643,5.23551888 12.1428571,5.70656371 C12.61905,6.17760853 12.8571429,6.74259645 12.8571429,7.4015444 L12.8571429,8.71428571 L15.1428571,8.71428571 L15.1428571,7.4015444 C15.1428571,6.74259645 15.38095,6.17760853 15.8571429,5.70656371 C16.3333357,5.23551888 16.9060456,5 17.5752896,5 C18.2496816,5 18.8223915,5.23680587 19.2934363,5.71042471 C19.7644811,6.18404355 20,6.75546641 20,7.42471042 C20,8.08880641 19.7644811,8.66022927 19.2934363,9.13899614 C18.8223915,9.61776301 18.2574036,9.85714286 17.5984556,9.85714286 L16.2857143,9.85714286 L16.2857143,12.1428571 L17.5984556,12.1428571 C18.2574036,12.1428571 18.8223915,12.382237 19.2934363,12.8610039 C19.7644811,13.3397707 20,13.9086196 20,14.5675676 C20,15.2419596 19.7644811,15.8159564 19.2934363,16.2895753 C18.8223915,16.7631941 18.2496816,17 17.5752896,17 C16.9060456,17 16.3333357,16.7644811 15.8571429,16.2934363 C15.38095,15.8223915 15.1428571,15.2574036 15.1428571,14.5984556 L15.1428571,13.2857143 L12.8571429,13.2857143 Z M11.7142857,8.71428571 L11.7142857,7.42471042 C11.7142857,7.06949629 11.5881608,6.76705402 11.3359073,6.51737452 C11.0836538,6.26769502 10.7799246,6.14285714 10.4247104,6.14285714 C10.0746443,6.14285714 9.77348903,6.26769502 9.52123552,6.51737452 C9.26898201,6.76705402 9.14285714,7.06949629 9.14285714,7.42471042 C9.14285714,7.77992456 9.26898201,8.08365382 9.52123552,8.33590734 C9.77348903,8.58816085 10.0772183,8.71428571 10.4324324,8.71428571 L11.7142857,8.71428571 Z M11.7142857,13.2857143 L10.4324324,13.2857143 C10.0772183,13.2857143 9.77348903,13.4118392 9.52123552,13.6640927 C9.26898201,13.9163462 9.14285714,14.2175015 9.14285714,14.5675676 C9.14285714,14.9227817 9.26898201,15.226511 9.52123552,15.4787645 C9.77348903,15.731018 10.0772183,15.8571429 10.4324324,15.8571429 C10.7824985,15.8571429 11.0836538,15.731018 11.3359073,15.4787645 C11.5881608,15.226511 11.7142857,14.9253557 11.7142857,14.5752896 L11.7142857,13.2857143 Z M16.2857143,8.71428571 L17.5752896,8.71428571 C17.9253557,8.71428571 18.226511,8.58816085 18.4787645,8.33590734 C18.731018,8.08365382 18.8571429,7.77992456 18.8571429,7.42471042 C18.8571429,7.06949629 18.732305,6.76705402 18.4826255,6.51737452 C18.232946,6.26769502 17.9305037,6.14285714 17.5752896,6.14285714 C17.2200754,6.14285714 16.9163462,6.26769502 16.6640927,6.51737452 C16.4118392,6.76705402 16.2857143,7.06949629 16.2857143,7.42471042 L16.2857143,8.71428571 Z M16.2857143,13.2857143 L16.2857143,14.5752896 C16.2857143,14.9253557 16.4118392,15.226511 16.6640927,15.4787645 C16.9163462,15.731018 17.2200754,15.8571429 17.5752896,15.8571429 C17.9305037,15.8571429 18.232946,15.731018 18.4826255,15.4787645 C18.732305,15.226511 18.8571429,14.9227817 18.8571429,14.5675676 C18.8571429,14.2175015 18.731018,13.9163462 18.4787645,13.6640927 C18.226511,13.4118392 17.9253557,13.2857143 17.5752896,13.2857143 L16.2857143,13.2857143 Z"/>
        <g transform="rotate(-30 50.918 10.982)">
            <use fill="#000" filter="url(#b)" xlink:href="#a"/>
            <use fill="#574751" stroke="#FFF" stroke-width="2" mask="url(#c)" xlink:href="#a"/>
        </g>
        <g fill="#574751" transform="translate(32 8)">
            <rect width="1" height="7" x="3" rx=".5"/>
            <rect width="1" height="7" x="3" transform="rotate(90 3.5 3.5)" rx=".5"/>
        </g>
    </g>
</svg>
