<svg xmlns="http://www.w3.org/2000/svg" width="16" height="16">
  <path fill="#574751" fill-rule="evenodd" d="M10.928 2.202L3.494 9.636c-.393.393-.394 1.036.002 1.432l1.438 1.438c.4.4 1.037.397 1.432.002L13.8 5.074l-2.872-2.872zm.933-.933l.976-.975c.394-.395 1.032-.395 1.43.003l1.438 1.436c.396.396.395 1.04.002 1.432l-.972.973-2.872-2.87zM.2 15.684c-.192-.193-.256-.552-.147-.793l1.42-3.124c.224-.493.717-.58 1.1-.196l1.853 1.85c.384.386.3.877-.196 1.102l-3.124 1.42c-.245.112-.6.046-.792-.146l-.114-.11z"/>
</svg>
