<svg width="26" height="18" viewBox="0 0 26 18" xmlns="http://www.w3.org/2000/svg">
    <path fill="#BCB5B9" fill-rule="evenodd" d="M4.52 10.247l2.64-7.35h.044l2.598 7.35H4.52zM6.07 1L0 16.757h2.118l1.746-4.745h6.593l1.703 4.745h2.292L8.362 1H6.068zm19.603 15.713c-.32.19-.765.287-1.332.287-.48 0-.86-.136-1.145-.408-.284-.272-.426-.718-.426-1.335-.51.617-1.103 1.063-1.78 1.335S19.582 17 18.796 17c-.51 0-.993-.06-1.452-.177-.458-.117-.855-.3-1.19-.55-.334-.25-.6-.58-.796-.983-.197-.405-.295-.894-.295-1.468 0-.647.11-1.177.327-1.59.22-.41.506-.746.863-1.003.356-.26.764-.453 1.222-.586.46-.132.928-.243 1.408-.33.51-.104.994-.18 1.452-.233.458-.05.862-.124 1.212-.22.35-.095.625-.235.83-.42.203-.183.305-.45.305-.804 0-.412-.077-.743-.23-.993-.152-.25-.35-.442-.59-.574-.24-.133-.508-.222-.807-.266-.298-.044-.593-.066-.884-.066-.785 0-1.44.15-1.963.452-.524.302-.808.872-.852 1.71H15.5c.03-.706.174-1.3.436-1.787.262-.485.61-.88 1.048-1.18.437-.302.935-.52 1.495-.652.56-.13 1.16-.197 1.8-.197.51 0 1.016.037 1.518.11.502.074.957.224 1.364.453.408.228.735.548.982.96.248.41.372.948.372 1.61v5.87c0 .442.025.766.076.972.05.206.222.31.513.31.16 0 .35-.038.568-.11v1.455zm-3.013-5.848c-.233.176-.54.305-.917.386-.378.082-.775.148-1.19.2-.414.05-.833.11-1.255.176-.422.066-.8.173-1.135.32-.335.147-.608.357-.82.63-.21.27-.315.643-.315 1.114 0 .31.062.57.185.783.124.213.284.386.48.52.197.13.426.227.688.286.263.057.54.087.83.087.612 0 1.136-.085 1.573-.254.436-.17.793-.382 1.07-.64.276-.257.48-.537.61-.84.13-.3.197-.583.197-.848v-1.92z"/>
</svg>