<svg width="36" height="36" viewBox="0 0 36 36" xmlns="http://www.w3.org/2000/svg">
<path d="M18 27c-.51 0-1.012-.043-1.5-.124v-2.293c-.766-.174-1.483-.478-2.125-.888l-1.62 1.62c-.797-.573-1.497-1.273-2.07-2.07l1.62-1.62c-.41-.642-.714-1.36-.888-2.125H9.124C9.044 19.012 9 18.51 9 18s.043-1.012.124-1.5h2.293c.174-.766.478-1.483.888-2.125l-1.62-1.62c.573-.797 1.273-1.497 2.07-2.07l1.62 1.62c.642-.41 1.36-.714 2.125-.888V9.124c.488-.08.99-.124 1.5-.124s1.012.043 1.5.124v2.293c.766.174 1.483.478 2.125.888l1.62-1.62c.797.573 1.496 1.272 2.068 2.07l-1.623 1.612c.412.645.718 1.364.893 2.133h2.293c.08.488.124.99.124 1.5s-.043 1.012-.124 1.5h-2.293c-.175.77-.48 1.488-.893 2.133l1.623 1.613c-.572.797-1.27 1.496-2.068 2.07l-1.62-1.62c-.642.41-1.36.713-2.125.887v2.293c-.488.08-.99.124-1.5.124zm0-5c2.21 0 4-1.79 4-4s-1.79-4-4-4-4 1.79-4 4 1.79 4 4 4z" fill="#574751"/>
</svg>

