<svg width="24" height="30" viewBox="0 0 24 30" xmlns="http://www.w3.org/2000/svg" class="tipImg">
    <path d="M6.948 22c1.512.843 3.23 1.313 5.053 1.313 1.766 0 3.432-.436 4.908-1.23 3.83.422 6.852 3.753 7.092 7.917H0c.216-4.164 3.176-7.528 6.948-8zm-4.39-10.425S.04 7.717 3.3 5.458C6.562 3.2 7.96 2.728 7.96 2.728L6.935 1.224 8.798 0l.746 1.788s10.713-5.364 10.06 4.705L2.558 11.575zm9.43 9.766c-4.994 0-9.04-4.145-9.04-9.257v-.04l16.624-5c.92 1.45 1.453 3.18 1.453 5.04 0 5.112-4.046 9.258-9.036 9.258zm.535-4.05h-.007c-.1-.003-.963-.047-1.8 1.186-.626.855-2.24 1.668-3.666.15.627.787 2.045 1.434 3.24 1.052.69-.22 1.096-1.008 2.258-1.136.34-.007.61-.293.603-.64-.006-.345-.287-.62-.627-.613zm3.35.14c-1.244-.798-2.02-.41-2.11-.367-.323.13-.475.497-.348.818.127.322.486.477.8.347 1.118-.35 1.795.21 2.516.135 1.247-.13 2.3-1.293 2.572-2.267-.724 1.967-2.52 1.868-3.428 1.334z" fill="#BCB5B9" fill-rule="evenodd"/>
</svg>