<svg width="280" height="176" viewBox="0 0 280 176" xmlns="http://www.w3.org/2000/svg">
    <g transform="translate(0 4)" fill="none" fill-rule="evenodd">
    <path d="M6.12 10.52C18.76.498 32.458-4.624 22.21 5.934c-10.247 10.56-18.8 21.503-8.537 14.806C28.758 10.52 44.78 2.08 28.64 15.24 12.5 28.396 17.152 29.115 17.152 29.115" stroke="#FECF33" stroke-width="7" stroke-linecap="round" stroke-linejoin="round"/>
    <path d="M71.585 15.717c-10.872 11.423-23.666 18.45-15.28 6.92C64.69 11.108 74.862 1.153 65.78 9.085c-13.283 12.01-27.817 22.514-13.997 7.59 13.82-14.923 9.04-14.83 9.04-14.83s-8.245 7.38-15.356 11.07" stroke="#FDBD39" stroke-width="7" stroke-linecap="round" stroke-linejoin="round"/>
    <path d="M238.714 16.47c-11.1 8.25-24.748 15.238-16.22 5.494 8.53-9.745 22.187-17.416 13.217-11.96-13.196 8.346-19.452 7.338-13.485 3.828 5.967-3.51 12.57-10.182 11.042-10.236-1.528-.054-7.612.656-15.54 5.777" stroke="#BCB5B9" stroke-width="7" stroke-linecap="round" stroke-linejoin="round"/>
    <path d="M90.064 12.026s23.293-12.318 21.43-5.504c-1.864 6.814-23.936 13.133-16.293 14.89 7.644 1.76 19.874-8.383 19.874-8.383s1.024 4.366-8.352 12.746" stroke="#F69833" stroke-width="7" stroke-linecap="round" stroke-linejoin="round"/>
    <path d="M203.243 16.34s-19.232 15.1-19.232 8.014 22.44-14.64 14.798-16.398C191.165 6.198 179.33 17.8 179.33 17.8s-1.42-5.827 7.958-14.207" stroke="#C8CF2D" stroke-width="7" stroke-linecap="round" stroke-linejoin="round"/>
    <path d="M145.297 4.468c-4.753 4.002-17.135 9.583-8.567 9.583 8.567 0 25.77-7.684 15.868-1.226S131.69 27.29 140.843 25.072c9.153-2.22 20.908-11.566 18.96-7.24-1.947 4.324-6.4 6.416-6.4 6.416" stroke="#EE6723" stroke-width="7" stroke-linecap="round" stroke-linejoin="round"/>
    <path d="M263.053 25.55c4.753-4.004 17.134-9.584 8.567-9.584s-26.575 5.55-16.672-.908c9.902-6.458 21.71-12.33 12.558-10.113-9.153 2.22-20.907 11.566-18.96 7.24 1.948-4.324 6.402-6.416 6.402-6.416" stroke="#574751" stroke-width="7" stroke-linecap="round" stroke-linejoin="round"/>
    <path fill-opacity=".4" fill="#BCB5B9" d="M0 45.732h83.943v125.89H0zM97.934 45.732h83.943v125.89H97.934zM195.868 45.732h83.943v125.89H195.87z"/>
    <path fill-opacity=".4" fill="#BCB5B9" d="M0 45.732h83.943v15.736H0zM97.934 155.885h83.943v15.736H97.934zM206.36 91.192h62.96v15.736h-62.96zM6.12 71.96h15.74v15.735H6.12zM6.12 101.683h15.74v15.736H6.12zM6.12 131.407h15.74v15.736H6.12zM206.36 113.922h62.96v15.736h-62.96zM108.427 100.808h62.958v6.994h-62.958zM27.98 71.96H76.95v5.244H27.98zM118.92 113.048h41.972v6.994H118.92zM27.98 82.45h32.646v5.244H27.98zM27.98 101.683H76.95v5.245H27.98zM27.98 112.173h32.646v5.245H27.98zM27.98 131.407H76.95v5.245H27.98zM27.98 141.897h32.646v5.245H27.98zM195.868 45.732h83.943v15.736H195.87z"/>
    <ellipse fill-opacity=".4" fill="#BCB5B9" cx="139.906" cy="77.204" rx="13.991" ry="13.988"/>
    </g>
</svg>