<svg width="13" height="16" viewBox="0 0 13 16" xmlns="http://www.w3.org/2000/svg">
    <title>CAA935E6-5458-4169-B998-86718CC9A491</title>
    <g fill="#574751" fill-rule="evenodd">
        <path d="M6 1h.954v10H6z"/>
        <path d="M0 7.998C0 7.448.447 7 1 7h11c.553 0 1 .446 1 .998v7.004c0 .55-.447.998-1 .998H1c-.553 0-1-.446-1-.998V7.998zm1 1.005C1 8.45 1.445 8 1.996 8h9.008c.55 0 .996.438.996 1.003v4.994c0 .554-.445 1.003-.996 1.003H1.996C1.446 15 1 14.562 1 13.997V9.003zM3 7h7v1H3V7zM6.707 0l4.243 4.243-.707.707L6 .707z"/>
        <path d="M6.243 0L2 4.243l.707.707L6.95.707z"/>
    </g>
</svg>

