<svg xmlns="http://www.w3.org/2000/svg" width="16" height="16" viewBox="0 0 16 16">
    <path fill="#554D56" fill-rule="evenodd" d="M7.437 3.5a2 2 0 0 1-3.874 0H.5a.5.5 0 0 1 0-1H3.563a2 2 0 0 1 3.874 0H15.5a.5.5 0 1 1 0 1H7.437zm-1.07 0a.995.995 0 0 0 0-1 1 1 0 1 0 0 1zm3.196 4a2 2 0 0 1 3.874 0H15.5a.5.5 0 1 1 0 1h-2.063a2 2 0 0 1-3.874 0H.5a.5.5 0 0 1 0-1h9.063zm1.07 0a.995.995 0 0 0 0 1 1 1 0 1 0 0-1zm-5.196 6a2 2 0 0 1-3.874 0H.5a.5.5 0 1 1 0-1h1.063a2 2 0 0 1 3.874 0H15.5a.5.5 0 1 1 0 1H5.437zm-1.07 0a.995.995 0 0 0 0-1 1 1 0 1 0 0 1z"/>
</svg>
