<svg xmlns="http://www.w3.org/2000/svg" width="14" height="14">
    <path fill="#bcb5b9" fill-rule="evenodd" d="M8.167 13.903c-.38.064-.77.097-1.167.097s-.787-.033-1.167-.097V12.12c-.595-.135-1.153-.372-1.652-.69l-1.26 1.26c-.62-.446-1.16-.99-1.61-1.61l1.26-1.26c-.31-.5-.55-1.058-.69-1.653H.1C.033 7.787 0 7.397 0 7s.033-.787.097-1.167H1.88c.135-.595.372-1.153.69-1.652L1.31 2.92c.446-.62.99-1.164 1.61-1.61l1.26 1.26c.5-.318 1.058-.555 1.653-.69V.097C6.213.033 6.603 0 7 0s.787.033 1.167.097V1.88c.595.135 1.153.372 1.652.69l1.26-1.26c.62.446 1.16.99 1.6 1.61l-1.26 1.254c.32.502.56 1.06.695 1.66H13.9c.064.38.097.77.097 1.166 0 .397-.034.787-.098 1.167h-1.78c-.14.598-.38 1.157-.7 1.66l1.262 1.254c-.445.62-.99 1.17-1.61 1.61l-1.26-1.26c-.498.32-1.056.56-1.65.69v1.79zM7 10.15c1.74 0 3.15-1.41 3.15-3.15S8.74 3.85 7 3.85 3.85 5.26 3.85 7 5.26 10.15 7 10.15z"/>
</svg>