<svg width="160" height="60" viewBox="0 0 160 60" xmlns="http://www.w3.org/2000/svg">
    <g fill="none" fill-rule="evenodd">
        <ellipse fill="#419BF9" cx="30" cy="30" rx="30" ry="30"/>
        <g transform="rotate(-15 76.135 -47.128)">
            <path d="M21.667 30c3.682 0 6.666-6.716 6.666-15 0-8.284-2.984-15-6.666-15v30zM21.667 30C17.985 30 15 23.284 15 15c0-8.284 2.985-15 6.667-15v30z"
                  fill="#FFF"/>
            <path fill="#FFF" d="M0 11.667L20 .475v29.06L0 18.334z"/>
            <ellipse fill="#DDDADC" cx="21.667" cy="15" rx="5" ry="13.333"/>
            <path d="M9.1 17.04v-4.526l8.692-1.125c1.642-.212 2.974.965 2.974 2.62v1.537c0 1.659-1.338 2.83-2.974 2.62L9.099 17.04z"
                  fill="#FFF"/>
        </g>
        <g fill="#FDBD39">
            <path d="M13.22 28.977a2.281 2.281 0 0 0-.67.076c-1.778.476-2.64 3.025-1.925 5.692.714 2.667 2.735 4.443 4.514 3.967.22-.06.427-.15.618-.27l5.39-3.065-1.726-6.44-6.2.04z"/>
            <path d="M18.53 34.352l4.372-1.171 3.813 9.701c.605 1.54-.208 3.136-1.806 3.565l-1.485.398c-1.603.429-3.1-.544-3.346-2.184l-1.549-10.309z"/>
            <path d="M24.308 23.044l-6.497 6.324 1.726 6.44 8.791 2.233c-1.324-1.909-2.465-4.38-3.214-7.178-.75-2.797-.998-5.504-.806-7.819z"/>
        </g>
        <g transform="translate(80 20)">
            <circle fill="#419BF9" cx="19.818" cy="20.364" r="19.636"/>
            <g transform="rotate(-15 52.687 -31.174)">
                <path d="M14.182 19.636c2.41 0 4.363-4.395 4.363-9.818C18.545 4.396 16.592 0 14.182 0v19.636zM14.182 19.636c-2.41 0-4.364-4.395-4.364-9.818C9.818 4.396 11.772 0 14.182 0v19.636z"
                      fill="#FFF"/>
                <path fill="#FFF" d="M0 7.636L13.09.311v19.022L0 12z"/>
                <ellipse fill="#DDDADC" cx="14.182" cy="9.818" rx="3.273" ry="8.727"/>
                <path d="M5.956 11.154V8.191l5.468-.707c1.198-.155 2.168.695 2.168 1.9v.577c0 1.204-.967 2.056-2.168 1.9l-5.468-.707z"
                      fill="#FFF"/>
            </g>
            <g fill="#FDBD39">
                <path d="M8.835 19.694a1.493 1.493 0 0 0-.438.05c-1.164.311-1.729 1.98-1.26 3.725.467 1.746 1.79 2.909 2.954 2.597.144-.039.28-.098.404-.176l3.528-2.007-1.13-4.215-4.058.026z"/>
                <path d="M12.31 23.213l2.862-.767 2.41 6.132c.444 1.128-.14 2.294-1.303 2.606l-.558.15c-1.163.311-2.25-.399-2.432-1.605l-.979-6.516z"/>
                <path d="M16.092 15.81l-4.252 4.14 1.13 4.215 5.754 1.462c-.867-1.25-1.613-2.867-2.104-4.699-.49-1.83-.653-3.602-.528-5.117z"/>
            </g>
        </g>
        <g transform="translate(140 40)">
            <circle fill="#419BF9" cx="9.909" cy="10.182" r="9.818"/>
            <g transform="rotate(-15 26.343 -15.587)">
                <path d="M7.09 9.818c1.206 0 2.183-2.198 2.183-4.909S8.296 0 7.09 0v9.818zM7.09 9.818c-1.204 0-2.18-2.198-2.18-4.909S5.885 0 7.09 0v9.818z"
                      fill="#FFF"/>
                <path fill="#FFF" d="M0 3.818L6.545.155v9.511L0 6z"/>
                <ellipse fill="#DDDADC" cx="7.091" cy="4.909" rx="1.636" ry="4.364"/>
                <path d="M2.978 5.577V4.095l2.734-.353c.599-.078 1.084.347 1.084.95v.289c0 .602-.483 1.027-1.084.95l-2.734-.354z"
                      fill="#FFF"/>
            </g>
            <g fill="#FDBD39">
                <path d="M4.418 9.847a.747.747 0 0 0-.22.025c-.582.156-.864.99-.63 1.863.234.873.895 1.454 1.477 1.298.073-.02.14-.05.203-.088l1.764-1.004-.565-2.107-2.03.013z"/>
                <path d="M6.155 11.606l1.431-.383 1.21 3.077a.95.95 0 0 1-.657 1.292l-.279.075a.95.95 0 0 1-1.214-.791l-.491-3.27z"/>
                <path d="M8.046 7.905L5.92 9.975l.565 2.108 2.877.73c-.433-.624-.807-1.433-1.052-2.349-.245-.915-.326-1.801-.264-2.559z"/>
            </g>
        </g>
    </g>
</svg>