<svg xmlns="http://www.w3.org/2000/svg" width="42" height="42">
    <path fill="#BCB5B9" fill-rule="evenodd" d="M7.34 13.81l-6.1 6.102 20.534 20.535c2.072 2.07 5.412 2.068 7.474.006l11.205-11.205c2.06-2.06 2.06-5.408-.006-7.474L19.912 1.24l-6.1 6.1c-1.763-.47-3.72-.014-5.103 1.37-1.387 1.38-1.84 3.34-1.37 5.1zm6.47-6.47l6.102-6.1L4.852.018C1.94-.218-.22 1.946.017 4.85L1.24 19.913l6.1-6.1c.233.866.688 1.686 1.37 2.366 2.06 2.06 5.405 2.06 7.468 0 2.062-2.066 2.062-5.41 0-7.47-.68-.68-1.5-1.138-2.367-1.37z"/>
</svg>