<svg xmlns="http://www.w3.org/2000/svg" width="96" height="66">
  <g fill="none" fill-rule="evenodd">
    <path fill="#FDBD39" d="M25.94 29.64c.26-1 1.3-1.63 2.3-1.37l13.48 3.36c1.02.25 1.63 1.28 1.38 2.3L39.74 47.4c-.25 1.02-1.3 1.64-2.3 1.4l-13.47-3.4c-1-.25-1.63-1.28-1.38-2.3l3.33-13.48z"/>
    <path fill="#F69833" d="M27.8 41l12.6 22.7H15.16"/>
    <path fill="#FECF33" d="M13.37 40.72L24.33 53.8 11.26 64.74.3 51.7l13.07-11z"/>
    <ellipse cx="86.53" cy="49.26" fill="#0DCFDA" rx="9.47" ry="9.47"/>
    <path fill="#BCB5B9" d="M66.1 51.6c-.03-1.05.8-1.93 1.83-1.96l18.3-.64c1.05-.04 1.92.78 1.96 1.83l.4 12.57c.04 1.05-.8 1.93-1.83 1.96L68.5 66c-1.04.04-1.92-.78-1.96-1.83L66.1 51.6z"/>
    <ellipse cx="51.79" cy="8.21" fill="#EE6723" rx="8.21" ry="8.21"/>
    <path fill="#C8CF2D" d="M55.34 41.9L74 38.6l3.3 18.66-18.67 3.3-3.3-18.67z"/>
  </g>
</svg>
