<svg xmlns="http://www.w3.org/2000/svg" xmlns:xlink="http://www.w3.org/1999/xlink" width="41" height="60" viewBox="0 0 41 60">
    <defs>
        <path id="a" d="M0 .178h33.23v41.74H0z"/>
        <path id="c" d="M16.617.232C6.644 1.085-.718 9.517.173 19.065c.891 9.548 9.698 16.596 19.67 15.743 9.973-.853 17.335-9.284 16.444-18.832C35.445 6.953 27.534.162 18.25.162c-.54 0-1.086.023-1.634.07"/>
        <path id="e" d="M16.617.232C6.644 1.085-.718 9.517.173 19.065c.891 9.548 9.698 16.596 19.67 15.743 9.973-.853 17.335-9.284 16.444-18.832C35.445 6.953 27.534.162 18.25.162c-.54 0-1.086.023-1.634.07z"/>
        <path id="g" d="M16.617.232C6.644 1.085-.718 9.517.173 19.065c.891 9.548 9.698 16.596 19.67 15.743 9.973-.853 17.335-9.284 16.444-18.832C35.445 6.953 27.534.162 18.25.162c-.54 0-1.086.023-1.634.07"/>
        <path id="i" d="M16.617.232C6.644 1.085-.718 9.517.173 19.065c.891 9.548 9.698 16.596 19.67 15.743 9.973-.853 17.335-9.284 16.444-18.832C35.445 6.953 27.534.162 18.25.162c-.54 0-1.086.023-1.634.07"/>
    </defs>
    <g fill="none" fill-rule="evenodd">
        <path fill="#242B57" d="M21.99 57.718h2.753V43.429H21.99z"/>
        <g transform="translate(0 2.476)">
            <mask id="b" fill="#fff">
                <use xlink:href="#a"/>
            </mask>
            <path fill="#242B57" d="M33.23 39.61c-.25.119-.501.234-.755.342a22.03 22.03 0 0 1-1.836.708 23.627 23.627 0 0 1-7.614 1.259c-2.467 0-4.943-.384-7.352-1.16-5.819-1.874-10.53-5.806-13.262-11.072-2.732-5.266-3.157-11.238-1.2-16.81 1.657-4.712 4.85-8.666 9.124-11.359a23.465 23.465 0 0 1 1.7-.97c.245-.128.493-.252.744-.37l.916 1.77c-.25.118-.498.242-.74.369l-.009.006a21.7 21.7 0 0 0-1.686.982C7.476 5.749 4.646 9.293 3.166 13.507c-1.78 5.072-1.394 10.507 1.094 15.3 2.487 4.795 6.773 8.373 12.07 10.08a21.64 21.64 0 0 0 15.217-.702c.003 0 .006 0 .009-.006.253-.104.507-.22.757-.338l.917 1.77z" mask="url(#b)"/>
        </g>
        <path fill="#242B57" d="M34.5 44.215c-.487.231-1.077.041-1.318-.424L11.33 1.662a.923.923 0 0 1 .443-1.26C12.259.17 12.849.36 13.09.824l21.852 42.129a.923.923 0 0 1-.443 1.26"/>
        <g transform="translate(4.51 4.976)">
            <mask id="d" fill="#fff">
                <use xlink:href="#c"/>
            </mask>
            <path fill="#1294B2" d="M36.287 15.976c.89 9.548-6.471 17.98-16.444 18.832-9.972.853-18.779-6.195-19.67-15.743C-.717 9.517 6.644 1.085 16.617.232c9.972-.853 18.779 6.196 19.67 15.744" mask="url(#d)"/>
        </g>
        <g transform="translate(4.51 4.976)">
            <mask id="f" fill="#fff">
                <use xlink:href="#e"/>
            </mask>
            <path fill="#BEDB42" d="M15.962-4.138c.014.157-.031.885-.098 1.804-.216 2.955 1.745 5.347 5.104 6.22 3.461.898 4.606 4.01 2.575 6.999l-1.151 1.695c-.837 1.232-1.074 2.552-.66 3.673.848 2.292 4.148 3.184 7.485 2.024l8.544-2.972L37.26.952l-21.297-5.09z" mask="url(#f)"/>
        </g>
        <g transform="translate(4.51 4.976)">
            <mask id="h" fill="#fff">
                <use xlink:href="#g"/>
            </mask>
            <path fill="#83B232" d="M7.469 10.67l3.144 1.411c2.937 1.318 3.972 4.822 2.19 7.417l-.572.833a4.922 4.922 0 0 0 .174 5.839c1.612 2.08 1.34 4.986-.633 6.757l-.478.428c-2.677 2.404-7.032 1.554-8.513-1.661l-4.285-9.299a4.899 4.899 0 0 1-.156-3.737l1.841-5.051c1.04-2.854 4.43-4.22 7.288-2.937" mask="url(#h)"/>
        </g>
        <g transform="translate(4.51 4.976)">
            <mask id="j" fill="#fff">
                <use xlink:href="#i"/>
            </mask>
            <path fill="#33A3BD" d="M20.983 27.202c-9.85.843-18.55-6.12-19.43-15.551C.673 2.219 7.945-6.11 17.796-6.952c9.85-.843 18.55 6.12 19.43 15.551.88 9.432-6.392 17.76-16.243 18.603z" mask="url(#j)"/>
            <path fill="#BEDB42" d="M19.756-1.338c-2.8 0-2.722-.068-2.785.805-.2 2.81 1.623 5.083 4.748 5.912 3.22.854 4.284 3.812 2.395 6.653l-1.07 1.611c-.78 1.172-1 2.426-.614 3.492.788 2.178 3.857 3.026 6.961 1.923l7.947-2.824c-1.143-5.048-2.96-8.784-5.448-11.209-4.272-4.16-9.334-6.363-12.134-6.363z" mask="url(#j)"/>
        </g>
        <g>
            <path fill="#91BD5C" d="M27.375 27.767c-.575.125-4.208-.703-4.4 2.005-.19 2.708 1.695 3.893 5.072 3.604 3.376-.289 6.076-3.07 5.759-4.884-.317-1.815-2.66-1.544-6.43-.725"/>
            <path fill="#242B57" d="M30.343 59.976H15.801c-.702 0-1.277-.55-1.277-1.223s.575-1.223 1.277-1.223h14.542c.703 0 1.278.55 1.278 1.223s-.575 1.223-1.278 1.223"/>
            <path fill="#BEDB42" d="M6.058 16.558l.005.069c.6 6.432 4.838 11.715 10.598 14.158a4.916 4.916 0 0 1 .08-5.478l.573-.834c1.781-2.595.746-6.098-2.19-7.416l-3.145-1.411a5.506 5.506 0 0 0-5.921.912"/>
        </g>
    </g>
</svg>
