<svg xmlns="http://www.w3.org/2000/svg" xmlns:xlink="http://www.w3.org/1999/xlink" width="29" height="55" viewBox="0 0 29 55">
    <defs>
        <path id="a" d="M40.436 42.867H16.303L.151.363H26.63z"/>
    </defs>
    <g fill="none" fill-rule="evenodd">
        <g transform="translate(1.556 .034)">
            <mask id="b" fill="#fff">
                <use xlink:href="#a"/>
            </mask>
            <path d="M40.436 42.867H16.303L.151.363H26.63z" mask="url(#b)"/>
        </g>
        <path fill="#626161" d="M0 54.647h28.185V0H0z"/>
        <path fill="#FFF" d="M23.26 12.97c0-5.042-4.105-9.13-9.168-9.13-5.062 0-9.166 4.088-9.166 9.13 0 5.043 4.104 9.13 9.166 9.13 5.063 0 9.167-4.087 9.167-9.13"/>
        <path fill="#AB393D" d="M14.092 5.448c-4.17 0-7.552 3.368-7.552 7.522 0 4.155 3.381 7.522 7.552 7.522 4.171 0 7.553-3.367 7.553-7.522 0-4.154-3.382-7.522-7.553-7.522z"/>
        <path fill="#FFF" d="M19.8 12.97c0-3.139-2.555-5.684-5.708-5.684-3.151 0-5.707 2.545-5.707 5.684 0 3.139 2.556 5.684 5.707 5.684 3.153 0 5.708-2.545 5.708-5.684"/>
        <path fill="#858585" d="M16.918 12.97a2.82 2.82 0 0 0-2.826-2.814 2.82 2.82 0 0 0-2.825 2.814 2.82 2.82 0 0 0 2.825 2.814 2.82 2.82 0 0 0 2.826-2.814"/>
        <path fill="#FFF" d="M25.091 37.401c0-6.05-4.924-10.954-10.999-10.954-6.074 0-10.998 4.904-10.998 10.954 0 6.05 4.924 10.954 10.998 10.954 6.075 0 11-4.904 11-10.954"/>
        <path fill="#AB393D" d="M23.154 37.401c0-4.984-4.057-9.025-9.062-9.025-5.004 0-9.061 4.04-9.061 9.025 0 4.984 4.057 9.025 9.061 9.025 5.005 0 9.062-4.04 9.062-9.025"/>
        <path fill="#FFF" d="M20.94 37.401c0-3.767-3.066-6.82-6.848-6.82s-6.847 3.053-6.847 6.82c0 3.767 3.065 6.82 6.847 6.82 3.782 0 6.848-3.053 6.848-6.82"/>
        <path fill="#858585" d="M17.483 37.401a3.383 3.383 0 0 0-3.39-3.376 3.384 3.384 0 0 0-3.39 3.376 3.384 3.384 0 0 0 3.39 3.376 3.383 3.383 0 0 0 3.39-3.376"/>
    </g>
</svg>
