<svg xmlns="http://www.w3.org/2000/svg" width="35" height="59" viewBox="0 0 35 59">
    <g fill="none" fill-rule="evenodd">
        <path fill="#F5B658" d="M6.868 15.91l3.939-.695 7.057 40.024-1.436 3.374-2.503-2.68z"/>
        <path fill="#F36C19" d="M5.602 8.735l3.94-.695.316 1.793-3.94.695z"/>
        <path fill="#DADBDF" d="M6.551 14.116l3.94-.695.316 1.793-3.94.695zM5.919 10.528l3.939-.695.316 1.794-3.94.694z"/>
        <path fill="#B2B1B7" d="M6.235 12.322l3.94-.694.315 1.793-3.939.695z"/>
        <path fill="#F5B658" d="M28.512 10.239l3.927.763-7.755 39.894-2.55 2.635-1.376-3.398z"/>
        <path fill="#F36C19" d="M29.902 3.087l3.927.763-.348 1.788-3.926-.764z"/>
        <path fill="#DADBDF" d="M28.86 8.45l3.926.764L32.44 11l-3.927-.763zM29.555 4.874l3.926.764-.347 1.787-3.927-.763z"/>
        <path fill="#B2B1B7" d="M29.207 6.663l3.927.763-.348 1.788-3.926-.764z"/>
        <g>
            <path fill="#F5B658" d="M21.682 43.746l-4-.07.71-40.634L20.445.004l1.946 3.108z"/>
            <path fill="#FF8134" d="M21.555 51.031l-4-.07.032-1.82 4 .07z"/>
            <path fill="#DADBDF" d="M21.65 45.568l-4-.07.032-1.82 4 .07zM21.586 49.21l-3.999-.07.032-1.82 4 .07z"/>
            <path fill="#B2B1B7" d="M21.618 47.389l-4-.07.033-1.821 3.999.07z"/>
        </g>
        <path fill="#00C3EB" fill-opacity=".889" d="M13 10h4v42h-4z"/>
        <path fill="#967FBD" d="M4 25h28v34H4z"/>
        <path fill="#856DAE" d="M4 26h28v6H4z"/>
        <path fill="#AB9AC9" d="M0 21h35v6H0z"/>
    </g>
</svg>
