<svg xmlns="http://www.w3.org/2000/svg" xmlns:xlink="http://www.w3.org/1999/xlink" width="43" height="35" viewBox="0 0 43 35">
    <defs>
        <path id="a" d="M0 0h40.976v45.262H0z"/>
    </defs>
    <g fill="none" fill-rule="evenodd" transform="rotate(-128 20.012 22)">
        <mask id="b" fill="#fff">
            <use xlink:href="#a"/>
        </mask>
        <path fill="#887752" d="M21.356 41.218c3.329-.406 6.751-.61 10.1-.358a2.19 2.19 0 0 0 1.183-4.162c-1.792-.924-3.437-2.165-5.169-3.222 1.51-2.155.758-1.54 2.586-3.516 2.314-2.503 9.988-10.958 10.908-14.182.188-.66.028-1.244-.314-1.644-1.203-2.006-3.031-3.55-4.905-4.93-1.041-.766-2.112-1.493-3.168-2.238-.915-.645-1.702-1.407-2.822-1.607a1.445 1.445 0 0 0-1.463.104c-2.63 1.73-6.857 8.039-9.036 10.836-3.706 4.759-.987 2.263-5.26 6.523-1.262-1.497-2.585-2.943-4.09-4.216-1.926-1.629-4.323.575-3.698 2.692C8 27.368 8.907 33.777 9.123 40.094c.005.136.035.276.076.416-.146 1.314.782 2.744 2.43 2.516 3.26-.45 6.437-1.407 9.727-1.808z" mask="url(#b)"/>
    </g>
</svg>
